<svg width="17" height="16" viewBox="0 0 17 16" fill="none" xmlns="http://www.w3.org/2000/svg">
<path d="M16.0667 0H5.40007C5.22325 0 5.05369 0.070238 4.92866 0.195262C4.80364 0.320287 4.7334 0.489856 4.7334 0.666667V4H1.40007C1.22325 4 1.05368 4.07024 0.928661 4.19526C0.803636 4.32029 0.733398 4.48986 0.733398 4.66667V15.3333C0.733398 15.5101 0.803636 15.6797 0.928661 15.8047C1.05368 15.9298 1.22325 16 1.40007 16H12.0667C12.2435 16 12.4131 15.9298 12.5381 15.8047C12.6632 15.6797 12.7334 15.5101 12.7334 15.3333V12H16.0667C16.2435 12 16.4131 11.9298 16.5381 11.8047C16.6632 11.6797 16.7334 11.5101 16.7334 11.3333V0.666667C16.7334 0.489856 16.6632 0.320287 16.5381 0.195262C16.4131 0.070238 16.2435 0 16.0667 0ZM15.4001 10.6667H12.7334V4.66667C12.7334 4.48986 12.6632 4.32029 12.5381 4.19526C12.4131 4.07024 12.2435 4 12.0667 4H6.06673V1.33333H15.4001V10.6667Z" fill="#D9D9D9"/>
</svg>
