<svg width="48" height="48" viewBox="0 0 48 48" fill="none" xmlns="http://www.w3.org/2000/svg">
<rect width="48.0003" height="48.0008" rx="24.0002" fill="#D42121" fill-opacity="0.2"/>
<path d="M20.1402 18.77L24.0002 22.63L27.8402 18.79C27.925 18.6997 28.0272 18.6275 28.1406 18.5777C28.254 18.5278 28.3763 18.5014 28.5002 18.5C28.7654 18.5 29.0197 18.6054 29.2073 18.7929C29.3948 18.9804 29.5002 19.2348 29.5002 19.5C29.5025 19.6226 29.4797 19.7444 29.4333 19.8579C29.3869 19.9714 29.3178 20.0742 29.2302 20.16L25.3402 24L29.2302 27.89C29.395 28.0512 29.4916 28.2696 29.5002 28.5C29.5002 28.7652 29.3948 29.0196 29.2073 29.2071C29.0197 29.3946 28.7654 29.5 28.5002 29.5C28.3727 29.5053 28.2456 29.484 28.1268 29.4375C28.008 29.3911 27.9002 29.3204 27.8102 29.23L24.0002 25.37L20.1502 29.22C20.0657 29.3073 19.9647 29.3769 19.8532 29.425C19.7416 29.4731 19.6216 29.4986 19.5002 29.5C19.2349 29.5 18.9806 29.3946 18.7931 29.2071C18.6055 29.0196 18.5002 28.7652 18.5002 28.5C18.4978 28.3774 18.5206 28.2556 18.567 28.1421C18.6134 28.0286 18.6826 27.9258 18.7702 27.84L22.6602 24L18.7702 20.11C18.6053 19.9488 18.5087 19.7304 18.5002 19.5C18.5002 19.2348 18.6055 18.9804 18.7931 18.7929C18.9806 18.6054 19.2349 18.5 19.5002 18.5C19.7402 18.503 19.9702 18.6 20.1402 18.77Z" fill="#D42121"/>
</svg>
