<svg width="25" height="24" viewBox="0 0 25 24" fill="none" xmlns="http://www.w3.org/2000/svg">
<path d="M8.00765 20.5C7.51053 20.5 7.08498 20.323 6.73098 19.969C6.37696 19.615 6.19995 19.1894 6.19995 18.6923V6.00005H5.94995C5.73745 6.00005 5.55933 5.92814 5.41558 5.78433C5.27183 5.64053 5.19995 5.46233 5.19995 5.24973C5.19995 5.03715 5.27183 4.85906 5.41558 4.71548C5.55933 4.57188 5.73745 4.50008 5.94995 4.50008H9.69993C9.69993 4.25521 9.78614 4.04656 9.95858 3.87413C10.131 3.7017 10.3397 3.61548 10.5845 3.61548H14.8153C15.0602 3.61548 15.2688 3.7017 15.4413 3.87413C15.6137 4.04656 15.6999 4.25521 15.6999 4.50008H19.4499C19.6624 4.50008 19.8405 4.57199 19.9843 4.7158C20.128 4.85962 20.1999 5.03782 20.1999 5.2504C20.1999 5.463 20.128 5.6411 19.9843 5.78468C19.8405 5.92826 19.6624 6.00005 19.4499 6.00005H19.1999V18.6923C19.1999 19.1894 19.0229 19.615 18.6689 19.969C18.3149 20.323 17.8893 20.5 17.3922 20.5H8.00765ZM17.6999 6.00005H7.69993V18.6923C7.69993 18.7821 7.72878 18.8558 7.78648 18.9135C7.84418 18.9712 7.9179 19.0001 8.00765 19.0001H17.3922C17.482 19.0001 17.5557 18.9712 17.6134 18.9135C17.6711 18.8558 17.6999 18.7821 17.6999 18.6923V6.00005ZM10.8541 17.0001C11.0667 17.0001 11.2448 16.9282 11.3884 16.7844C11.532 16.6407 11.6038 16.4626 11.6038 16.2501V8.75003C11.6038 8.53755 11.5319 8.35943 11.3881 8.21568C11.2442 8.07193 11.066 8.00005 10.8535 8.00005C10.6409 8.00005 10.4628 8.07193 10.3192 8.21568C10.1756 8.35943 10.1038 8.53755 10.1038 8.75003V16.2501C10.1038 16.4626 10.1757 16.6407 10.3195 16.7844C10.4633 16.9282 10.6415 17.0001 10.8541 17.0001ZM14.5464 17.0001C14.759 17.0001 14.9371 16.9282 15.0807 16.7844C15.2243 16.6407 15.2961 16.4626 15.2961 16.2501V8.75003C15.2961 8.53755 15.2241 8.35943 15.0803 8.21568C14.9365 8.07193 14.7583 8.00005 14.5457 8.00005C14.3331 8.00005 14.1551 8.07193 14.0115 8.21568C13.8679 8.35943 13.7961 8.53755 13.7961 8.75003V16.2501C13.7961 16.4626 13.868 16.6407 14.0118 16.7844C14.1556 16.9282 14.3338 17.0001 14.5464 17.0001Z" fill="white"/>
</svg>
