<svg width="25" height="15" viewBox="0 0 25 15" fill="none" xmlns="http://www.w3.org/2000/svg">
<path fill-rule="evenodd" clip-rule="evenodd" d="M11.0903 11.9854L0 15L2.76039 4.48856L6.20393 7.58775L11.7586 2.16325C11.9472 1.9791 12.2077 1.875 12.48 1.875C12.7523 1.875 13.0128 1.9791 13.2014 2.16325L17.28 6.14627L23.2786 0.288252C23.6611 -0.0852585 24.2941 -0.0973711 24.6925 0.2612C25.0909 0.619769 25.1039 1.21324 24.7214 1.58675L18.0014 8.14925C17.8128 8.3334 17.5523 8.4375 17.28 8.4375C17.0077 8.4375 16.7472 8.3334 16.5586 8.14925L12.48 4.16623L7.64671 8.88624L11.0903 11.9854Z" fill="#7CFF01"/>
</svg>
