<svg width="25" height="16" viewBox="0 0 25 16" fill="none" xmlns="http://www.w3.org/2000/svg">
<path fill-rule="evenodd" clip-rule="evenodd" d="M13.9097 3.51457L25 0.5L22.2396 11.0114L18.7961 7.91225L13.2414 13.3367C13.0528 13.5209 12.7923 13.625 12.52 13.625C12.2477 13.625 11.9872 13.5209 11.7986 13.3367L7.72 9.35373L1.72139 15.2117C1.33891 15.5853 0.705881 15.5974 0.307469 15.2388C-0.0909418 14.8802 -0.103861 14.2868 0.278614 13.9133L6.99861 7.35075C7.18719 7.1666 7.44771 7.0625 7.72 7.0625C7.9923 7.0625 8.25281 7.1666 8.44139 7.35075L12.52 11.3338L17.3533 6.61376L13.9097 3.51457Z" fill="#7CFF01"/>
</svg>
