<svg width="24" height="24" viewBox="0 0 24 24" fill="none" xmlns="http://www.w3.org/2000/svg">
<path d="M9.88 9.87988C9.58525 10.1545 9.34884 10.4857 9.18487 10.8537C9.02091 11.2217 8.93274 11.619 8.92563 12.0218C8.91852 12.4246 8.99262 12.8247 9.14351 13.1983C9.29439 13.5718 9.51897 13.9112 9.80384 14.196C10.0887 14.4809 10.4281 14.7055 10.8016 14.8564C11.1752 15.0073 11.5753 15.0814 11.9781 15.0742C12.3809 15.0671 12.7782 14.979 13.1461 14.815C13.5141 14.651 13.8453 14.4146 14.12 14.1199" stroke="#787878" stroke-width="2" stroke-linecap="round" stroke-linejoin="round"/>
<path d="M10.73 5.08C11.1513 5.02751 11.5754 5.00079 12 5C19 5 22 12 22 12C21.5529 12.9571 20.9922 13.8569 20.33 14.68" stroke="#787878" stroke-width="2" stroke-linecap="round" stroke-linejoin="round"/>
<path d="M6.61 6.61011C4.62125 7.96473 3.02987 9.82537 2 12.0001C2 12.0001 5 19.0001 12 19.0001C13.9159 19.0052 15.7908 18.4452 17.39 17.3901" stroke="#787878" stroke-width="2" stroke-linecap="round" stroke-linejoin="round"/>
<path d="M2 2L22 22" stroke="#787878" stroke-width="2" stroke-linecap="round" stroke-linejoin="round"/>
</svg>
