<svg width="24" height="24" viewBox="0 0 24 24" fill="none" xmlns="http://www.w3.org/2000/svg">
<path d="M6.25 6C6.25 5.586 6.586 5.25 7 5.25H15C15.414 5.25 15.75 5.586 15.75 6C15.75 6.414 15.414 6.75 15 6.75H7C6.586 6.75 6.25 6.414 6.25 6ZM8 11.25H7C6.586 11.25 6.25 11.586 6.25 12C6.25 12.414 6.586 12.75 7 12.75H8C8.414 12.75 8.75 12.414 8.75 12C8.75 11.586 8.414 11.25 8 11.25ZM7 9.75H11C11.414 9.75 11.75 9.414 11.75 9C11.75 8.586 11.414 8.25 11 8.25H7C6.586 8.25 6.25 8.586 6.25 9C6.25 9.414 6.586 9.75 7 9.75ZM16.955 15.25H15.75V13.965C15.75 13.551 15.414 13.215 15 13.215C14.586 13.215 14.25 13.551 14.25 13.965V16C14.25 16.414 14.586 16.75 15 16.75H16.955C17.369 16.75 17.705 16.414 17.705 16C17.705 15.586 17.369 15.25 16.955 15.25ZM20.75 16C20.75 19.17 18.171 21.75 15 21.75C13.801 21.75 12.687 21.38 11.765 20.75H6C4.483 20.75 3.25 19.517 3.25 18V5C3.25 3.483 4.483 2.25 6 2.25H16C17.517 2.25 18.75 3.483 18.75 5V11.651C19.972 12.706 20.75 14.263 20.75 16ZM6 19.25H10.261C9.624 18.325 9.25 17.206 9.25 16C9.25 12.83 11.829 10.25 15 10.25C15.798 10.25 16.559 10.414 17.25 10.709V5C17.25 4.311 16.689 3.75 16 3.75H6C5.311 3.75 4.75 4.311 4.75 5V18C4.75 18.689 5.311 19.25 6 19.25ZM19.25 16C19.25 13.657 17.344 11.75 15 11.75C12.656 11.75 10.75 13.657 10.75 16C10.75 18.343 12.656 20.25 15 20.25C17.344 20.25 19.25 18.343 19.25 16Z" fill="url(#paint0_angular_929_2324)"/>
<defs>
<radialGradient id="paint0_angular_929_2324" cx="0" cy="0" r="1" gradientUnits="userSpaceOnUse" gradientTransform="translate(16.3623 1.08) rotate(-90.2225) scale(6.53255 5.86376)">
<stop offset="0.448316" stop-color="#6552FE"/>
<stop offset="1" stop-color="#01FFF4"/>
</radialGradient>
</defs>
</svg>
