<svg width="129" height="26" viewBox="0 0 129 26" fill="none" xmlns="http://www.w3.org/2000/svg">
<path d="M15.7721 8.47046C15.6272 7.42461 15.2596 6.54443 14.6693 5.82994C14.0791 5.11544 13.3491 4.5718 12.4792 4.19902C11.6198 3.82624 10.7137 3.63985 9.76106 3.63985C8.35278 3.63985 7.31728 3.90908 6.65456 4.44754C5.99184 4.97565 5.66048 5.63837 5.66048 6.4357C5.66048 7.16055 5.90383 7.75079 6.39051 8.20641C6.88755 8.65167 7.53992 9.01928 8.3476 9.30921C9.16565 9.59915 10.0614 9.87356 11.0347 10.1324C12.0081 10.381 12.9763 10.6761 13.9393 11.0178C14.9127 11.3492 15.8032 11.7841 16.6109 12.3225C17.4289 12.861 18.0813 13.5599 18.568 14.4194C19.065 15.2685 19.3135 16.3506 19.3135 17.6657C19.3135 19.3743 18.9356 20.7722 18.1797 21.8595C17.4341 22.9468 16.3779 23.7493 15.011 24.267C13.6442 24.7848 12.0495 25.0436 10.227 25.0436C8.94302 25.0436 7.80915 24.8521 6.82542 24.4689C5.85205 24.0754 5.03401 23.5784 4.37129 22.9778C4.0917 22.7189 3.90013 22.6309 3.79658 22.7138C3.69303 22.7966 3.54806 23.0141 3.36167 23.3661L2.98889 24.2359C2.8957 24.4223 2.79215 24.5362 2.67824 24.5777C2.56434 24.6294 2.35724 24.6553 2.05694 24.6553H0.845408C0.576177 24.6553 0.389787 24.6139 0.286237 24.5311C0.182687 24.4586 0.130912 24.2929 0.130912 24.034V16.5784C0.130912 16.3092 0.167155 16.1383 0.23964 16.0659C0.32248 15.9934 0.498515 15.9571 0.767745 15.9571H2.2278C2.51774 15.9571 2.67824 16.0037 2.70931 16.0969C2.75073 16.1798 2.78697 16.3454 2.81804 16.594C2.92159 17.5466 3.25295 18.4527 3.81211 19.3121C4.37129 20.1613 5.1272 20.8602 6.07986 21.409C7.04288 21.9475 8.16639 22.2167 9.45041 22.2167C10.5998 22.2167 11.5369 22.0562 12.2618 21.7352C12.997 21.4142 13.5406 20.9897 13.8927 20.4615C14.2448 19.9334 14.4208 19.3639 14.4208 18.753C14.4208 17.9349 14.1723 17.2826 13.6753 16.7959C13.1886 16.2988 12.5414 15.895 11.7337 15.5843C10.926 15.2737 10.0355 14.9993 9.0621 14.7611C8.09908 14.523 7.13089 14.2537 6.15752 13.9534C5.19451 13.6428 4.30915 13.2389 3.50147 12.7419C2.69378 12.2449 2.04659 11.5925 1.5599 10.7848C1.07322 9.96676 0.829875 8.92608 0.829875 7.66277C0.829875 6.46159 1.05251 5.43127 1.49777 4.5718C1.94304 3.70198 2.54363 2.98749 3.29954 2.42832C4.05546 1.86915 4.90975 1.46013 5.86241 1.20125C6.82542 0.942374 7.81432 0.812937 8.82911 0.812937C9.91639 0.812937 10.9156 0.97344 11.8269 1.29444C12.7381 1.61545 13.5199 2.04518 14.1723 2.58364C14.4105 2.77003 14.602 2.86323 14.747 2.86323C14.892 2.86323 15.0473 2.70273 15.213 2.38172L15.6479 1.5119C15.7204 1.398 15.7773 1.32033 15.8187 1.27891C15.8705 1.22714 15.9896 1.20125 16.176 1.20125H17.869C18.1072 1.20125 18.2625 1.24267 18.335 1.32551C18.4178 1.40835 18.4593 1.57403 18.4593 1.82255V8.65685C18.4593 8.93643 18.4127 9.11247 18.3195 9.18495C18.2366 9.24709 18.0502 9.27815 17.7603 9.27815H16.5643C16.1708 9.27815 15.9534 9.22638 15.9119 9.12282C15.8705 9.01928 15.8239 8.80182 15.7721 8.47046ZM21.8315 12.8506C21.8315 11.111 22.1059 9.50596 22.6547 8.03555C23.2036 6.56514 24.0009 5.2863 25.0467 4.19902C26.103 3.10139 27.3766 2.25228 28.8677 1.65169C30.3692 1.04075 32.0623 0.735275 33.9469 0.735275C35.8315 0.735275 37.5245 1.04075 39.026 1.65169C40.5275 2.25228 41.8011 3.10139 42.847 4.19902C43.8928 5.2863 44.6902 6.56514 45.239 8.03555C45.7878 9.50596 46.0622 11.111 46.0622 12.8506C46.0622 14.5903 45.7723 16.1953 45.1924 17.6657C44.6229 19.1361 43.7996 20.4201 42.7227 21.5178C41.6562 22.605 40.3773 23.4541 38.8862 24.0651C37.4054 24.6657 35.759 24.966 33.9469 24.966C32.0623 24.966 30.3692 24.6657 28.8677 24.0651C27.3766 23.4541 26.103 22.605 25.0467 21.5178C24.0009 20.4201 23.2036 19.1361 22.6547 17.6657C22.1059 16.1953 21.8315 14.5903 21.8315 12.8506ZM27.6562 12.8506C27.6562 14.1761 27.7753 15.4083 28.0134 16.5474C28.2516 17.6864 28.6192 18.6753 29.1163 19.5141C29.6237 20.3528 30.276 21.0052 31.0734 21.4712C31.881 21.9371 32.8389 22.1701 33.9469 22.1701C35.148 22.1701 36.1473 21.9371 36.9446 21.4712C37.7523 21.0052 38.3943 20.3528 38.8707 19.5141C39.3574 18.6753 39.7042 17.6864 39.9113 16.5474C40.1288 15.4083 40.2375 14.1761 40.2375 12.8506C40.2375 11.5148 40.1184 10.2826 39.8803 9.15389C39.6421 8.01484 39.2693 7.02594 38.7619 6.18718C38.2649 5.34843 37.6177 4.69606 36.8204 4.23009C36.0334 3.76411 35.0756 3.53113 33.9469 3.53113C32.8389 3.53113 31.881 3.76411 31.0734 4.23009C30.276 4.69606 29.6237 5.34843 29.1163 6.18718C28.6192 7.02594 28.2516 8.01484 28.0134 9.15389C27.7753 10.2826 27.6562 11.5148 27.6562 12.8506ZM51.5168 4.15242H49.4354C49.1455 4.15242 48.9643 4.12654 48.8918 4.07476C48.8297 4.01263 48.7986 3.84177 48.7986 3.56219V1.69829C48.7986 1.4187 48.8607 1.26856 48.985 1.24785C49.1093 1.21678 49.3008 1.20125 49.5597 1.20125H58.4288C58.7498 1.20125 58.9672 1.23749 59.0811 1.30998C59.2054 1.38246 59.2882 1.49637 59.3296 1.65169C59.3711 1.79666 59.428 1.98305 59.5005 2.21086L63.9117 15.662C64.0463 16.0659 64.1499 16.4335 64.2224 16.7648C64.2949 17.0858 64.3881 17.2463 64.502 17.2463C64.6262 17.2463 64.7246 17.148 64.7971 16.9512C64.8799 16.7545 64.9886 16.4593 65.1233 16.0659L70.0626 1.79149C70.1558 1.53261 70.2335 1.37211 70.2956 1.30998C70.3681 1.23749 70.5752 1.20125 70.9169 1.20125H79.0404C79.351 1.20125 79.5633 1.22196 79.6772 1.26338C79.8015 1.29445 79.8636 1.48084 79.8636 1.82255V3.3758C79.8636 3.72787 79.8325 3.94532 79.7704 4.02816C79.7083 4.111 79.496 4.15242 79.1336 4.15242H77.2075C76.8969 4.15242 76.7105 4.2042 76.6484 4.30775C76.5862 4.4113 76.5604 4.61322 76.5707 4.91352L77.1765 20.8965C77.1868 21.1657 77.2179 21.3417 77.2697 21.4246C77.3215 21.5074 77.4871 21.5488 77.7667 21.5488H80.1432C80.4228 21.5488 80.5885 21.5799 80.6402 21.642C80.692 21.7042 80.7179 21.875 80.7179 22.1546V23.7389C80.7179 24.0392 80.6868 24.2411 80.6247 24.3447C80.5626 24.4482 80.3762 24.5 80.0655 24.5H69.6432C69.3533 24.5 69.1565 24.4586 69.053 24.3757C68.9598 24.2929 68.9132 24.0962 68.9132 23.7855V22.2789C68.9132 21.9578 68.9546 21.7559 69.0375 21.6731C69.1306 21.5902 69.3326 21.5488 69.6432 21.5488H71.678C71.9783 21.5488 72.175 21.497 72.2682 21.3935C72.3614 21.29 72.4028 21.0984 72.3925 20.8188L72.0197 9.41794C72.0093 8.9209 72.0197 8.40833 72.0508 7.88022C72.0818 7.35212 72.0922 6.90686 72.0818 6.54443C72.0818 6.182 72.0197 6.00079 71.8954 6.00079C71.7815 6.00079 71.678 6.10952 71.5848 6.32697C71.4916 6.53407 71.3984 6.80848 71.3052 7.1502C71.212 7.49191 71.0981 7.85434 70.9635 8.23747L65.5737 24.2049C65.4805 24.4741 65.377 24.6553 65.2631 24.7485C65.1595 24.8417 64.9265 24.8883 64.5641 24.8883H62.8089C62.3947 24.8883 62.1255 24.8262 62.0012 24.7019C61.8873 24.5777 61.7786 24.3706 61.675 24.0806L56.2231 8.08215C56.1196 7.7715 56.0212 7.40907 55.928 6.99487C55.8452 6.58067 55.7572 6.21825 55.664 5.9076C55.5708 5.58659 55.4569 5.42609 55.3223 5.42609C55.2291 5.42609 55.1669 5.54517 55.1359 5.78334C55.1152 6.01115 55.0944 6.42535 55.0737 7.02594L54.4835 20.4926C54.4731 20.8861 54.5094 21.1605 54.5922 21.3158C54.6751 21.4712 54.9339 21.5488 55.3689 21.5488H57.3415C57.6418 21.5488 57.8333 21.5902 57.9162 21.6731C57.999 21.7456 58.0404 21.932 58.0404 22.2323V23.7855C58.0404 24.1169 57.9783 24.3188 57.854 24.3913C57.7298 24.4638 57.5072 24.5 57.1862 24.5H48.5346C48.2032 24.5 47.9961 24.4586 47.9133 24.3757C47.8304 24.2929 47.789 24.0858 47.789 23.7544V22.1391C47.789 21.8905 47.8201 21.73 47.8822 21.6576C47.9443 21.5851 48.0996 21.5488 48.3482 21.5488H50.647C51.0094 21.5488 51.2217 21.4712 51.2838 21.3158C51.3459 21.1605 51.3822 20.9223 51.3925 20.6013L52.2002 4.74266C52.2106 4.47343 52.1692 4.30775 52.076 4.24562C51.9828 4.18349 51.7964 4.15242 51.5168 4.15242ZM82.111 12.8506C82.111 11.111 82.3854 9.50596 82.9342 8.03555C83.483 6.56514 84.2803 5.2863 85.3262 4.19902C86.3824 3.10139 87.6561 2.25228 89.1472 1.65169C90.6487 1.04075 92.3417 0.735275 94.2263 0.735275C96.1109 0.735275 97.804 1.04075 99.3054 1.65169C100.807 2.25228 102.081 3.10139 103.126 4.19902C104.172 5.2863 104.97 6.56514 105.518 8.03555C106.067 9.50596 106.342 11.111 106.342 12.8506C106.342 14.5903 106.052 16.1953 105.472 17.6657C104.902 19.1361 104.079 20.4201 103.002 21.5178C101.936 22.605 100.657 23.4541 99.1656 24.0651C97.6849 24.6657 96.0384 24.966 94.2263 24.966C92.3417 24.966 90.6487 24.6657 89.1472 24.0651C87.6561 23.4541 86.3824 22.605 85.3262 21.5178C84.2803 20.4201 83.483 19.1361 82.9342 17.6657C82.3854 16.1953 82.111 14.5903 82.111 12.8506ZM87.9356 12.8506C87.9356 14.1761 88.0547 15.4083 88.2929 16.5474C88.5311 17.6864 88.8987 18.6753 89.3957 19.5141C89.9031 20.3528 90.5555 21.0052 91.3528 21.4712C92.1605 21.9371 93.1183 22.1701 94.2263 22.1701C95.4275 22.1701 96.4267 21.9371 97.2241 21.4712C98.0318 21.0052 98.6738 20.3528 99.1501 19.5141C99.6368 18.6753 99.9837 17.6864 100.191 16.5474C100.408 15.4083 100.517 14.1761 100.517 12.8506C100.517 11.5148 100.398 10.2826 100.16 9.15389C99.9216 8.01484 99.5488 7.02594 99.0414 6.18718C98.5443 5.34843 97.8972 4.69606 97.0998 4.23009C96.3128 3.76411 95.355 3.53113 94.2263 3.53113C93.1183 3.53113 92.1605 3.76411 91.3528 4.23009C90.5555 4.69606 89.9031 5.34843 89.3957 6.18718C88.8987 7.02594 88.5311 8.01484 88.2929 9.15389C88.0547 10.2826 87.9356 11.5148 87.9356 12.8506ZM125.015 8.47046C124.87 7.42461 124.503 6.54443 123.913 5.82994C123.322 5.11544 122.592 4.5718 121.722 4.19902C120.863 3.82624 119.957 3.63985 119.004 3.63985C117.596 3.63985 116.561 3.90908 115.898 4.44754C115.235 4.97565 114.904 5.63837 114.904 6.4357C114.904 7.16055 115.147 7.75079 115.634 8.20641C116.131 8.65167 116.783 9.01928 117.591 9.30921C118.409 9.59915 119.305 9.87356 120.278 10.1324C121.251 10.381 122.22 10.6761 123.183 11.0178C124.156 11.3492 125.046 11.7841 125.854 12.3225C126.672 12.861 127.325 13.5599 127.811 14.4194C128.308 15.2685 128.557 16.3506 128.557 17.6657C128.557 19.3743 128.179 20.7722 127.423 21.8595C126.677 22.9468 125.621 23.7493 124.254 24.267C122.887 24.7848 121.293 25.0436 119.47 25.0436C118.186 25.0436 117.052 24.8521 116.069 24.4689C115.095 24.0754 114.277 23.5784 113.615 22.9778C113.335 22.7189 113.143 22.6309 113.04 22.7138C112.936 22.7966 112.791 23.0141 112.605 23.3661L112.232 24.2359C112.139 24.4223 112.035 24.5362 111.921 24.5777C111.808 24.6294 111.6 24.6553 111.3 24.6553H110.089C109.819 24.6553 109.633 24.6139 109.529 24.5311C109.426 24.4586 109.374 24.2929 109.374 24.034V16.5784C109.374 16.3092 109.41 16.1383 109.483 16.0659C109.566 15.9934 109.742 15.9571 110.011 15.9571H111.471C111.761 15.9571 111.921 16.0037 111.953 16.0969C111.994 16.1798 112.03 16.3454 112.061 16.594C112.165 17.5466 112.496 18.4527 113.055 19.3121C113.615 20.1613 114.37 20.8602 115.323 21.409C116.286 21.9475 117.41 22.2167 118.694 22.2167C119.843 22.2167 120.78 22.0562 121.505 21.7352C122.24 21.4142 122.784 20.9897 123.136 20.4615C123.488 19.9334 123.664 19.3639 123.664 18.753C123.664 17.9349 123.416 17.2826 122.918 16.7959C122.432 16.2988 121.785 15.895 120.977 15.5843C120.169 15.2737 119.279 14.9993 118.305 14.7611C117.342 14.523 116.374 14.2537 115.401 13.9534C114.438 13.6428 113.552 13.2389 112.745 12.7419C111.937 12.2449 111.29 11.5925 110.803 10.7848C110.316 9.96676 110.073 8.92608 110.073 7.66277C110.073 6.46159 110.296 5.43127 110.741 4.5718C111.186 3.70198 111.787 2.98749 112.543 2.42832C113.299 1.86915 114.153 1.46013 115.106 1.20125C116.069 0.942374 117.058 0.812937 118.072 0.812937C119.16 0.812937 120.159 0.97344 121.07 1.29444C121.981 1.61545 122.763 2.04518 123.416 2.58364C123.654 2.77003 123.845 2.86323 123.99 2.86323C124.135 2.86323 124.291 2.70273 124.456 2.38172L124.891 1.5119C124.964 1.398 125.021 1.32033 125.062 1.27891C125.114 1.22714 125.233 1.20125 125.419 1.20125H127.112C127.35 1.20125 127.506 1.24267 127.578 1.32551C127.661 1.40835 127.702 1.57403 127.702 1.82255V8.65685C127.702 8.93643 127.656 9.11247 127.563 9.18495C127.48 9.24709 127.293 9.27815 127.004 9.27815H125.808C125.414 9.27815 125.197 9.22638 125.155 9.12282C125.114 9.01928 125.067 8.80182 125.015 8.47046Z" fill="#DC9B1D"/>
</svg>
