<svg width="25" height="15" viewBox="0 0 25 15" fill="none" xmlns="http://www.w3.org/2000/svg">
<path fill-rule="evenodd" clip-rule="evenodd" d="M13.9097 3.01457L25 0L22.2396 10.5114L18.7961 7.41225L13.2414 12.8367C13.0528 13.0209 12.7923 13.125 12.52 13.125C12.2477 13.125 11.9872 13.0209 11.7986 12.8367L7.72 8.85373L1.72139 14.7117C1.33891 15.0853 0.705881 15.0974 0.307469 14.7388C-0.0909418 14.3802 -0.103861 13.7868 0.278614 13.4133L6.99861 6.85075C7.18719 6.6666 7.44771 6.5625 7.72 6.5625C7.9923 6.5625 8.25281 6.6666 8.44139 6.85075L12.52 10.8338L17.3533 6.11376L13.9097 3.01457Z" fill="#FE0000"/>
</svg>
