<svg width="23" height="22" viewBox="0 0 23 22" fill="none" xmlns="http://www.w3.org/2000/svg">
<path d="M9.90283 11C9.90283 12.1371 10.8282 13.0625 11.9653 13.0625C13.1025 13.0625 14.0278 12.1371 14.0278 11C14.0278 9.86287 13.1025 8.9375 11.9653 8.9375C10.8282 8.9375 9.90283 9.86287 9.90283 11Z" fill="#F3F3F3"/>
<path d="M9.90283 17.875C9.90283 19.0121 10.8282 19.9375 11.9653 19.9375C13.1025 19.9375 14.0278 19.0121 14.0278 17.875C14.0278 16.7379 13.1025 15.8125 11.9653 15.8125C10.8282 15.8125 9.90283 16.7379 9.90283 17.875Z" fill="#F3F3F3"/>
<path d="M9.90283 4.125C9.90283 5.26213 10.8282 6.1875 11.9653 6.1875C13.1025 6.1875 14.0278 5.26213 14.0278 4.125C14.0278 2.98787 13.1025 2.0625 11.9653 2.0625C10.8282 2.0625 9.90283 2.98787 9.90283 4.125Z" fill="#F3F3F3"/>
</svg>
