<svg width="146" height="146" viewBox="0 0 146 146" fill="none" xmlns="http://www.w3.org/2000/svg">
<g filter="url(#filter0_f_3981_1233)">
<circle cx="73.1545" cy="73.2969" r="54.4219" fill="#C1CBFF"/>
</g>
<circle cx="73.1545" cy="73.2969" r="60.6094" fill="#EFF2FF" stroke="#F3F3F3" stroke-width="3.375"/>
<mask id="mask0_3981_1233" style="mask-type:alpha" maskUnits="userSpaceOnUse" x="14" y="14" width="118" height="118">
<circle cx="73.1545" cy="73.2969" r="58.6406" fill="#F3F3F3" fill-opacity="0.5"/>
</mask>
<g mask="url(#mask0_3981_1233)">
<mask id="mask1_3981_1233" style="mask-type:luminance" maskUnits="userSpaceOnUse" x="28" y="45" width="91" height="91">
<path d="M28.0139 45.3125H118.295V135.594H28.0139V45.3125Z" fill="white"/>
</mask>
<g mask="url(#mask1_3981_1233)">
<path d="M107.402 70.463L86.0194 49.0806C85.1194 48.2341 83.9253 47.7712 82.6899 47.79C81.4545 47.8088 80.275 48.3078 79.4012 49.1813C78.5275 50.0548 78.028 51.2341 78.0088 52.4695C77.9896 53.7048 78.452 54.8991 79.2982 55.7994L70.1299 64.9677L91.5123 86.3501L100.681 77.1818C101.572 78.0731 102.78 78.5739 104.04 78.5742C104.664 78.5743 105.282 78.4515 105.859 78.2128C106.435 77.9741 106.959 77.6242 107.401 77.183C107.842 76.7418 108.192 76.2181 108.431 75.6416C108.67 75.0651 108.793 74.4472 108.793 73.8232C108.793 73.1992 108.67 72.5813 108.432 72.0047C108.193 71.4282 107.843 70.9043 107.402 70.463" fill="#6552FE"/>
<path d="M82.6577 47.6882H47.0204C44.4999 47.6882 42.0828 48.6894 40.3005 50.4716C38.5183 52.2538 37.5171 54.671 37.5171 57.1915V123.714C37.5171 126.235 38.5183 128.652 40.3005 130.434C42.0828 132.217 44.4999 133.218 47.0204 133.218H99.2885C101.809 133.218 104.226 132.217 106.008 130.434C107.791 128.652 108.792 126.235 108.792 123.714V73.8222H87.4094C85.0335 73.8222 82.6577 71.4464 82.6577 69.0706V47.6882Z" fill="url(#paint0_angular_3981_1233)"/>
<path d="M82.6577 47.688H77.906V69.0704C77.906 71.5909 78.9072 74.0081 80.6895 75.7903C82.4717 77.5725 84.8889 78.5737 87.4093 78.5737H108.792V73.8221H87.4093C85.0335 73.8221 82.6577 71.4463 82.6577 69.0704V47.688Z" fill="white"/>
<path d="M70.7785 74.1256C70.7785 74.7557 70.5282 75.36 70.0826 75.8056C69.6371 76.2512 69.0328 76.5015 68.4027 76.5015H49.3961C48.766 76.5015 48.1617 76.2512 47.7161 75.8056C47.2706 75.36 47.0203 74.7557 47.0203 74.1256C47.0203 73.4955 47.2706 72.8912 47.7161 72.4457C48.1617 72.0001 48.766 71.7498 49.3961 71.7498H68.4027C69.0328 71.7498 69.6371 72.0001 70.0826 72.4457C70.5282 72.8912 70.7785 73.4955 70.7785 74.1256Z" fill="white"/>
<path d="M70.7785 110.407C70.7785 111.037 70.5282 111.641 70.0826 112.087C69.6371 112.532 69.0328 112.783 68.4027 112.783H49.3961C48.766 112.783 48.1617 112.532 47.7161 112.087C47.2706 111.641 47.0203 111.037 47.0203 110.407C47.0203 109.777 47.2706 109.172 47.7161 108.727C48.1617 108.281 48.766 108.031 49.3961 108.031H68.4027C69.0328 108.031 69.6371 108.281 70.0826 108.727C70.5282 109.172 70.7785 109.777 70.7785 110.407Z" fill="white"/>
<path d="M99.2884 85.6569C99.2884 86.287 99.038 86.8913 98.5925 87.3369C98.1469 87.7824 97.5426 88.0327 96.9125 88.0327H49.3961C48.766 88.0327 48.1617 87.7824 47.7161 87.3369C47.2706 86.8913 47.0203 86.287 47.0203 85.6569C47.0203 85.0268 47.2706 84.4225 47.7161 83.9769C48.1617 83.5314 48.766 83.2811 49.3961 83.2811H96.9125C97.5426 83.2811 98.1469 83.5314 98.5925 83.9769C99.038 84.4225 99.2884 85.0268 99.2884 85.6569Z" fill="white"/>
<path d="M90.4514 97.1733C90.4514 97.8074 90.244 98.4154 89.8748 98.8638C89.5056 99.3121 89.0048 99.564 88.4827 99.564H49.1077C48.5855 99.564 48.0848 99.3121 47.7155 98.8638C47.3463 98.4154 47.1389 97.8074 47.1389 97.1733C47.1389 96.5393 47.3463 95.9312 47.7155 95.4829C48.0848 95.0346 48.5855 94.7827 49.1077 94.7827H88.4827C89.0048 94.7827 89.5056 95.0346 89.8748 95.4829C90.244 95.9312 90.4514 96.5393 90.4514 97.1733Z" fill="white"/>
</g>
<path d="M101.137 112.338L100.191 113.22L97.3845 110.211L96.3879 109.142L97.3336 108.26L98.3301 109.329L101.137 112.338Z" fill="#B7C2FF"/>
<path d="M98.3301 109.329C98.1793 109.481 98.0241 109.631 97.8664 109.779C97.7086 109.926 97.5474 110.071 97.3845 110.21L96.3879 109.141L97.3362 108.259L98.3301 109.329ZM101.289 112.479C101.138 112.632 100.983 112.782 100.825 112.929C100.667 113.077 100.506 113.222 100.343 113.36L99.3465 112.291L100.295 111.41L101.289 112.479Z" fill="#5E73E4"/>
<path d="M102.254 98.3021C102.144 101.386 101.123 104.369 99.3195 106.873C97.5157 109.378 95.0103 111.291 92.1196 112.372C89.2289 113.453 86.0826 113.654 83.0782 112.948C80.0738 112.242 77.3459 110.662 75.2391 108.406C72.4158 105.378 70.9106 101.353 71.0546 97.2159C71.1987 93.0785 72.9801 89.1678 76.0072 86.3437C82.3002 80.4731 92.1983 80.8171 98.0688 87.1118C99.4718 88.6076 100.564 90.3668 101.282 92.2876C102.001 94.2085 102.331 96.2527 102.254 98.3021V98.3021Z" fill="url(#paint1_linear_3981_1233)"/>
<path d="M99.3387 98.2066C99.2246 101.492 97.8399 104.605 95.4761 106.89C93.1124 109.175 89.9542 110.454 86.6666 110.456C86.5166 110.456 86.3657 110.454 86.214 110.449C85.4258 110.421 84.6418 110.322 83.8718 110.151C82.4058 109.825 81.0101 109.239 79.7512 108.42C78.8811 107.853 78.0833 107.182 77.3754 106.422C75.1059 103.956 73.9038 100.693 74.0314 97.3439C74.1591 93.995 75.6062 90.8326 78.0569 88.5467C80.5075 86.2609 83.7629 85.0371 87.1125 85.1425C90.4621 85.2479 93.6341 86.6739 95.9362 89.1094C96.4436 89.653 96.9028 90.2397 97.3086 90.8628C98.1283 92.1206 98.7155 93.5154 99.0422 94.9808C99.2777 96.0391 99.3773 97.1231 99.3387 98.2066V98.2066Z" fill="url(#paint2_linear_3981_1233)"/>
<path d="M90.8525 90.9702C88.8015 89.8061 86.3721 89.5042 84.0984 90.1307C81.8248 90.7573 79.893 92.2611 78.7278 94.3115" stroke="white" stroke-width="4.21875" stroke-linecap="round" stroke-linejoin="round"/>
<path d="M112.798 125.402C112.264 125.902 111.56 126.179 110.829 126.178H110.726C110.348 126.166 109.975 126.079 109.631 125.923C109.286 125.766 108.976 125.543 108.718 125.266L98.0989 114.288L102.323 110.346L112.94 121.318C113.461 121.879 113.739 122.624 113.713 123.389C113.686 124.155 113.357 124.879 112.798 125.402V125.402Z" fill="#6552FE"/>
<path d="M113.174 124.975C112.907 125.347 112.555 125.651 112.147 125.861C111.739 126.071 111.287 126.181 110.829 126.181H110.726C110.348 126.169 109.975 126.082 109.63 125.925C109.286 125.768 108.975 125.544 108.718 125.266L98.0989 114.288L98.7833 113.649L109.38 124.602C109.638 124.879 109.948 125.103 110.293 125.259C110.637 125.416 111.01 125.503 111.388 125.515H111.491C112.095 125.517 112.684 125.327 113.174 124.975V124.975Z" fill="#B5C0FF"/>
<path d="M102.264 111.646L112.263 121.644" stroke="white" stroke-width="0.84375" stroke-linecap="round" stroke-linejoin="round"/>
</g>
<defs>
<filter id="filter0_f_3981_1233" x="0.732666" y="0.875" width="144.844" height="144.844" filterUnits="userSpaceOnUse" color-interpolation-filters="sRGB">
<feFlood flood-opacity="0" result="BackgroundImageFix"/>
<feBlend mode="normal" in="SourceGraphic" in2="BackgroundImageFix" result="shape"/>
<feGaussianBlur stdDeviation="9" result="effect1_foregroundBlur_3981_1233"/>
</filter>
<radialGradient id="paint0_angular_3981_1233" cx="0" cy="0" r="1" gradientUnits="userSpaceOnUse" gradientTransform="translate(90.9214 138.35) rotate(90.2066) scale(28.6526 23.8822)">
<stop offset="0.448316" stop-color="#6552FE"/>
<stop offset="1" stop-color="#01FFF4"/>
</radialGradient>
<linearGradient id="paint1_linear_3981_1233" x1="86.6551" y1="82.1562" x2="86.6551" y2="113.362" gradientUnits="userSpaceOnUse">
<stop stop-color="#B7C2FF"/>
<stop offset="1" stop-color="#4D64DE"/>
</linearGradient>
<linearGradient id="paint2_linear_3981_1233" x1="86.6845" y1="85.1362" x2="86.6845" y2="110.456" gradientUnits="userSpaceOnUse">
<stop stop-color="#EFF2FF"/>
<stop offset="1" stop-color="white"/>
</linearGradient>
</defs>
</svg>
