<svg width="23" height="24" viewBox="0 0 23 24" fill="none" xmlns="http://www.w3.org/2000/svg">
<path d="M21.9417 13.6582L20.0419 6.82296C19.485 4.82052 18.2748 3.06167 16.6036 1.826C14.9324 0.590322 12.8961 -0.0512704 10.8184 0.00320346C8.7407 0.0576773 6.74082 0.805092 5.13666 2.12664C3.5325 3.44819 2.41611 5.26804 1.96496 7.2969L0.494128 13.9111C0.331662 14.642 0.335419 15.4 0.50512 16.1292C0.674821 16.8584 1.00613 17.5402 1.4746 18.1242C1.94306 18.7082 2.53671 19.1796 3.21173 19.5035C3.88674 19.8273 4.62588 19.9955 5.37457 19.9954H6.48844C6.71793 21.1256 7.33108 22.1417 8.22399 22.8715C9.11689 23.6013 10.2347 24 11.3879 24C12.5411 24 13.6589 23.6013 14.5518 22.8715C15.4447 22.1417 16.0578 21.1256 16.2873 19.9954H17.1252C17.8959 19.9955 18.6562 19.8174 19.3467 19.4749C20.0372 19.1325 20.6392 18.6351 21.1056 18.0215C21.572 17.408 21.8903 16.6949 22.0355 15.9379C22.1807 15.181 22.1479 14.4008 21.9417 13.6582ZM11.3879 21.9952C10.7697 21.9927 10.1674 21.7992 9.66338 21.4412C9.15937 21.0832 8.77826 20.5783 8.5722 19.9954H14.2036C13.9975 20.5783 13.6164 21.0832 13.1124 21.4412C12.6084 21.7992 12.0061 21.9927 11.3879 21.9952ZM19.5129 16.8108C19.2343 17.1804 18.8733 17.48 18.4587 17.6857C18.044 17.8914 17.5871 17.9975 17.1242 17.9957H5.37457C4.92541 17.9956 4.48199 17.8947 4.07706 17.7003C3.67213 17.5059 3.31601 17.2231 3.035 16.8727C2.75399 16.5223 2.55525 16.1133 2.45347 15.6758C2.35168 15.2383 2.34944 14.7836 2.4469 14.3451L3.91674 7.72985C4.27105 6.13624 5.1479 4.7068 6.40791 3.66877C7.66791 2.63073 9.23875 2.04367 10.8707 2.00092C12.5027 1.95817 14.1021 2.46217 15.4147 3.43281C16.7274 4.40345 17.6778 5.78502 18.1151 7.35789L20.0149 14.1931C20.1404 14.6384 20.1604 15.1069 20.0733 15.5613C19.9862 16.0157 19.7943 16.4435 19.5129 16.8108Z" fill="white"/>
</svg>
