<svg width="25" height="24" viewBox="0 0 25 24" fill="none" xmlns="http://www.w3.org/2000/svg">
<path d="M14.5 21C13.9477 21 13.5 20.5523 13.5 20V12C13.5 11.4477 13.9477 11 14.5 11H20.5C21.0523 11 21.5 11.4477 21.5 12V20C21.5 20.5523 21.0523 21 20.5 21H14.5ZM4.5 13C3.94772 13 3.5 12.5523 3.5 12V4C3.5 3.44772 3.94772 3 4.5 3H10.5C11.0523 3 11.5 3.44772 11.5 4V12C11.5 12.5523 11.0523 13 10.5 13H4.5ZM9 11C9.27614 11 9.5 10.7761 9.5 10.5V5.5C9.5 5.22386 9.27614 5 9 5H6C5.72386 5 5.5 5.22386 5.5 5.5V10.5C5.5 10.7761 5.72386 11 6 11H9ZM4.5 21C3.94772 21 3.5 20.5523 3.5 20V16C3.5 15.4477 3.94772 15 4.5 15H10.5C11.0523 15 11.5 15.4477 11.5 16V20C11.5 20.5523 11.0523 21 10.5 21H4.5ZM5.5 18.5C5.5 18.7761 5.72386 19 6 19H9C9.27614 19 9.5 18.7761 9.5 18.5V17.5C9.5 17.2239 9.27614 17 9 17H6C5.72386 17 5.5 17.2239 5.5 17.5V18.5ZM15.5 18.5C15.5 18.7761 15.7239 19 16 19H19C19.2761 19 19.5 18.7761 19.5 18.5V13.5C19.5 13.2239 19.2761 13 19 13H16C15.7239 13 15.5 13.2239 15.5 13.5V18.5ZM13.5 4C13.5 3.44772 13.9477 3 14.5 3H20.5C21.0523 3 21.5 3.44772 21.5 4V8C21.5 8.55228 21.0523 9 20.5 9H14.5C13.9477 9 13.5 8.55228 13.5 8V4ZM16 5C15.7239 5 15.5 5.22386 15.5 5.5V6.5C15.5 6.77614 15.7239 7 16 7H19C19.2761 7 19.5 6.77614 19.5 6.5V5.5C19.5 5.22386 19.2761 5 19 5H16Z" fill="#D9D9D9"/>
</svg>
