<svg width="24" height="22" viewBox="0 0 24 22" fill="none" xmlns="http://www.w3.org/2000/svg">
<path d="M22.4708 11.0089H24C24.0056 5.10046 19.2204 0.306133 13.3119 0.300542C7.68871 0.29519 3.02117 4.64404 2.62946 10.2535L1.08114 8.70521L0 9.78559L3.28778 13.0734L6.57555 9.78559L5.49135 8.70521L4.17548 10.0211C4.72967 4.98419 9.26216 1.35019 14.2991 1.90438C18.944 2.41547 22.4629 6.33595 22.4708 11.0089Z" fill="#F3F3F3"/>
<path d="M10.6249 21.3778C11.1567 21.5137 11.6981 21.6093 12.2443 21.6637L12.3972 20.1414C11.9288 20.0951 11.4646 20.013 11.0087 19.896L10.6249 21.3778Z" fill="#F3F3F3"/>
<path d="M4.83685 14.5376L3.4254 15.1263C3.63705 15.6327 3.88703 16.1222 4.17318 16.5905L5.47758 15.7931C5.23253 15.3914 5.01835 14.9717 4.83685 14.5376Z" fill="#F3F3F3"/>
<path d="M7.61159 20.0763C8.07551 20.368 8.56122 20.6236 9.06433 20.8409L9.67065 19.4371C9.2387 19.2505 8.82176 19.031 8.42359 18.7803L7.61159 20.0763Z" fill="#F3F3F3"/>
<path d="M6.30412 16.9368L5.13734 17.9254C5.49178 18.3442 5.87776 18.7353 6.29189 19.0952L7.29504 17.9407C6.93946 17.632 6.60815 17.2964 6.30412 16.9368Z" fill="#F3F3F3"/>
<path d="M18.9942 18.1961L19.9476 19.3881C20.3769 19.0462 20.7793 18.6717 21.1511 18.268L20.0241 17.2319C19.7057 17.579 19.3614 17.9012 18.9942 18.1961Z" fill="#F3F3F3"/>
<path d="M13.8048 20.1703L13.8882 21.6995C14.4368 21.6694 14.9823 21.5971 15.5198 21.4831L15.2018 19.9868C14.7415 20.0837 14.2745 20.145 13.8048 20.1703Z" fill="#F3F3F3"/>
<path d="M20.9011 16.1241L22.1703 16.9774C22.4764 16.5217 22.7471 16.0432 22.98 15.5461L21.5946 14.8977C21.3953 15.3237 21.1634 15.7338 20.9011 16.1241Z" fill="#F3F3F3"/>
<path d="M16.5536 19.5869L17.0987 21.0159C17.6118 20.8198 18.1091 20.5844 18.5859 20.3117L17.8266 18.9844C17.4182 19.2174 16.9926 19.4188 16.5536 19.5869Z" fill="#F3F3F3"/>
</svg>
