<svg width="24" height="22" viewBox="0 0 24 22" fill="none" xmlns="http://www.w3.org/2000/svg">
<path d="M4.83151 10.2707V9.90615C4.83151 8.70302 4.82713 7.4999 4.83151 6.29677C4.83807 5.04188 5.63943 4.08375 6.8688 3.85406C7.01335 3.83014 7.15983 3.81989 7.3063 3.82344C10.4335 3.82344 13.5604 3.82344 16.687 3.82344C18.1249 3.82344 19.1662 4.86688 19.1742 6.3099C19.1801 7.42115 19.1742 8.53313 19.1742 9.64511V9.99656C19.3047 10.0046 19.4105 10.0163 19.5162 10.0163C20.5188 10.0163 21.5229 10.0476 22.524 10.0082C23.3188 9.97688 23.8365 10.8599 23.6498 11.5315C23.5918 11.7203 23.477 11.8868 23.3211 12.0082C23.1653 12.1296 22.9758 12.2002 22.7785 12.2103C22.6881 12.2169 22.5962 12.2103 22.5051 12.2103H1.47443C1.40151 12.2103 1.32859 12.2103 1.25568 12.2103C0.665779 12.1921 0.307759 11.8195 0.315051 11.2325C0.322342 10.6864 0.715363 10.2773 1.26297 10.2736C2.32974 10.2656 3.39651 10.2736 4.46255 10.2736L4.83151 10.2707Z" fill="#D9D9D9"/>
<path d="M19.2027 13.6089C19.1728 14.5306 19.2159 15.4121 19.0977 16.2711C18.9475 17.359 17.9165 18.1669 16.8082 18.1713C13.6086 18.1786 10.4095 18.1786 7.21087 18.1713C6.59252 18.1657 6.00033 17.921 5.55841 17.4885C5.1165 17.056 4.85916 16.4692 4.84034 15.8511C4.81264 15.1781 4.8367 14.5029 4.83014 13.8284C4.83014 13.6636 4.88628 13.5907 5.05253 13.6096C5.09774 13.614 5.14368 13.6096 5.18962 13.6096H19.2027V13.6089Z" fill="#D9D9D9"/>
<path d="M18.0959 0.44458C18.7025 0.483955 19.3245 0.452601 19.9144 0.576559C21.415 0.891559 22.473 2.23395 22.5059 3.78489C22.5234 4.58698 22.5168 5.38906 22.5059 6.19114C22.4993 6.81823 22.1624 7.1726 21.5878 7.18791C20.9885 7.20323 20.5867 6.8452 20.567 6.22541C20.5429 5.45177 20.567 4.67739 20.5517 3.90302C20.5364 3.12864 20.0726 2.56062 19.3456 2.44031C19.183 2.42131 19.0192 2.41546 18.8556 2.42281C18.1542 2.42281 17.4527 2.42937 16.7513 2.41843C16.6232 2.41941 16.4963 2.39443 16.3782 2.34502C16.2601 2.2956 16.1532 2.22277 16.064 2.13091C15.9748 2.03906 15.9052 1.93009 15.8592 1.81057C15.8133 1.69105 15.7921 1.56347 15.7968 1.43552C15.8055 0.884267 16.211 0.487602 16.7804 0.482498C16.9715 0.482498 17.1625 0.482498 17.3543 0.482498H18.0915L18.0959 0.44458Z" fill="#D9D9D9"/>
<path d="M18.031 21.5123C17.603 21.5123 17.1742 21.5167 16.7462 21.5123C16.1629 21.5058 15.8107 21.1572 15.7983 20.5775C15.7852 20.0256 16.1811 19.5881 16.736 19.5779C17.5009 19.564 18.2672 19.5779 19.0314 19.5727C19.9472 19.5727 20.5408 18.9974 20.5546 18.0823C20.5656 17.3532 20.5605 16.624 20.5546 15.8948C20.5546 15.4267 20.7005 15.0512 21.1686 14.8696C21.7745 14.6341 22.4811 15.0789 22.4964 15.7541C22.519 16.7093 22.5314 17.6689 22.4534 18.619C22.3265 20.1699 20.8696 21.4759 19.3136 21.508C18.8856 21.5174 18.4576 21.508 18.0295 21.508L18.031 21.5123Z" fill="#D9D9D9"/>
<path d="M5.90051 21.551C5.29384 21.5102 4.67186 21.5408 4.08343 21.4147C2.58863 21.0939 1.5379 19.7646 1.50145 18.2246C1.48176 17.4225 1.48978 16.6204 1.50145 15.8183C1.50874 15.2168 1.9003 14.8121 2.45593 14.8041C2.99988 14.7968 3.41113 15.1446 3.43228 15.6937C3.46218 16.4483 3.44541 17.2052 3.45561 17.9606C3.45035 18.1515 3.46847 18.3422 3.50957 18.5287C3.59017 18.8257 3.76584 19.0882 4.0097 19.2759C4.25357 19.4637 4.55221 19.5664 4.85999 19.5684C5.64311 19.575 6.42697 19.5684 7.21009 19.5721C7.87291 19.5779 8.29582 20.0825 8.19082 20.7285C8.15369 20.9458 8.0413 21.1432 7.87333 21.2859C7.70536 21.4287 7.49252 21.5078 7.27207 21.5095H5.90343L5.90051 21.551Z" fill="#D9D9D9"/>
<path d="M5.93992 0.481777C6.36867 0.481777 6.79669 0.478131 7.22471 0.481777C7.79419 0.488339 8.1996 0.883548 8.20835 1.4348C8.2171 1.98605 7.80585 2.41261 7.22544 2.41917C6.47877 2.42646 5.73137 2.41917 4.98471 2.41917C4.05356 2.41917 3.4644 2.99813 3.45346 3.92855C3.44325 4.72115 3.45346 5.51375 3.43304 6.30563C3.42429 6.69865 3.20554 6.97209 2.84387 7.11719C2.24012 7.35928 1.52627 6.9174 1.51023 6.24219C1.4869 5.27823 1.46794 4.30771 1.55762 3.35032C1.70346 1.81907 3.2245 0.49636 4.76596 0.479589C5.15679 0.47886 5.54835 0.482506 5.93992 0.481777Z" fill="#D9D9D9"/>
</svg>
