<svg width="24" height="24" viewBox="0 0 24 24" fill="none" xmlns="http://www.w3.org/2000/svg">
<path d="M21.664 6.73093C21.6402 6.14525 21.4547 5.57761 21.128 5.09095C20.8012 4.6043 20.3461 4.21767 19.813 3.97393L14.242 1.69193C12.8061 1.09943 11.194 1.09943 9.75801 1.69193L4.18701 3.97293C3.65373 4.21679 3.1984 4.60356 2.8715 5.09038C2.54461 5.57719 2.35891 6.14503 2.33501 6.73093V11.1169C2.39047 13.7466 3.29121 16.2885 4.90386 18.3664C6.51652 20.4442 8.75538 21.9476 11.289 22.6539C11.7547 22.7819 12.2463 22.7819 12.712 22.6539C15.2455 21.9474 17.4841 20.444 19.0966 18.3661C20.709 16.2883 21.6096 13.7465 21.665 11.1169L21.664 6.73093ZM12.313 21.2079C12.1084 21.2639 11.8926 21.2639 11.688 21.2079C9.46884 20.5924 7.50685 19.2787 6.09248 17.4613C4.67812 15.6439 3.88656 13.4193 3.83501 11.1169V6.73093C3.85704 6.44271 3.95325 6.16509 4.11428 5.92503C4.27531 5.68498 4.49569 5.49065 4.75401 5.36093L10.327 3.07993C11.3984 2.63724 12.6016 2.63724 13.673 3.07993L19.245 5.36193C19.5034 5.49133 19.7238 5.68544 19.8849 5.92535C20.0459 6.16527 20.1421 6.4428 20.164 6.73093V11.1169C20.1126 13.419 19.3213 15.6434 17.9073 17.4608C16.4934 19.2782 14.5318 20.5921 12.313 21.2079Z" fill="#F3F3F3"/>
<path d="M14.75 10.5C14.7524 9.98792 14.6117 9.48531 14.3438 9.04883C14.0759 8.61235 13.6915 8.25934 13.2338 8.02959C12.7761 7.79983 12.2633 7.70244 11.7532 7.7484C11.2432 7.79436 10.7561 7.98184 10.3468 8.28972C9.93756 8.5976 9.62241 9.01364 9.43686 9.49098C9.25132 9.96832 9.20275 10.488 9.29663 10.9914C9.39052 11.4949 9.62312 11.9621 9.96824 12.3405C10.3134 12.7189 10.7573 12.9934 11.25 13.133V15.5C11.25 15.699 11.329 15.8897 11.4697 16.0304C11.6103 16.171 11.8011 16.25 12 16.25C12.1989 16.25 12.3897 16.171 12.5303 16.0304C12.671 15.8897 12.75 15.699 12.75 15.5V13.133C13.3242 12.9711 13.83 12.6265 14.1909 12.1515C14.5518 11.6764 14.7481 11.0966 14.75 10.5ZM12 11.75C11.7528 11.75 11.5111 11.6767 11.3055 11.5394C11.1 11.402 10.9398 11.2068 10.8452 10.9784C10.7505 10.75 10.7258 10.4987 10.774 10.2562C10.8223 10.0137 10.9413 9.79098 11.1161 9.61617C11.2909 9.44135 11.5137 9.3223 11.7561 9.27407C11.9986 9.22584 12.2499 9.25059 12.4784 9.3452C12.7068 9.43981 12.902 9.60002 13.0393 9.80559C13.1767 10.0111 13.25 10.2528 13.25 10.5C13.2495 10.8314 13.1176 11.149 12.8833 11.3833C12.649 11.6177 12.3314 11.7495 12 11.75Z" fill="#F3F3F3"/>
</svg>
