<svg width="17" height="16" viewBox="0 0 17 16" fill="none" xmlns="http://www.w3.org/2000/svg">
<path d="M12.7101 10.7199C12.2035 10.7199 11.7501 10.9199 11.4035 11.2333L6.65014 8.46658C6.68348 8.31325 6.71014 8.15992 6.71014 7.99992C6.71014 7.83992 6.68348 7.68658 6.65014 7.53325L11.3501 4.79325C11.7101 5.12659 12.1835 5.33325 12.7101 5.33325C13.8168 5.33325 14.7101 4.43992 14.7101 3.33325C14.7101 2.22659 13.8168 1.33325 12.7101 1.33325C11.6035 1.33325 10.7101 2.22659 10.7101 3.33325C10.7101 3.49325 10.7368 3.64658 10.7701 3.79992L6.07014 6.53992C5.71014 6.20659 5.23681 5.99992 4.71014 5.99992C3.60348 5.99992 2.71014 6.89325 2.71014 7.99992C2.71014 9.10659 3.60348 9.99992 4.71014 9.99992C5.23681 9.99992 5.71014 9.79325 6.07014 9.45992L10.8168 12.2333C10.7835 12.3733 10.7635 12.5199 10.7635 12.6666C10.7635 13.7399 11.6368 14.6133 12.7101 14.6133C13.7835 14.6133 14.6568 13.7399 14.6568 12.6666C14.6568 11.5933 13.7835 10.7199 12.7101 10.7199Z" fill="#D9D9D9"/>
</svg>
