<svg width="36" height="50" viewBox="0 0 36 50" fill="none" xmlns="http://www.w3.org/2000/svg">
<path d="M21.043 25.193C19.2496 23.8011 16.7435 23.7921 14.9401 25.1711L14.175 25.7562C13.95 25.9437 13.725 25.9531 13.5 25.7844C13.275 25.6156 13.2 25.4 13.275 25.1375L13.7301 23.667C14.3379 21.7036 13.6822 19.5682 12.0772 18.2843L10.8 17.2625C10.6125 17.075 10.5562 16.8594 10.6312 16.6156C10.7062 16.3719 10.875 16.25 11.1375 16.25H12.315C14.4943 16.25 16.4225 14.8385 17.0812 12.7612L17.4375 11.6375C17.5125 11.375 17.7 11.2437 18 11.2437C18.3 11.2437 18.4875 11.375 18.5625 11.6375L18.9188 12.7612C19.5775 14.8385 21.5057 16.25 23.685 16.25H24.8062C25.0687 16.25 25.2469 16.3719 25.3406 16.6156C25.4344 16.8594 25.3875 17.075 25.2 17.2625L23.9011 18.287C22.2774 19.5676 21.6096 21.7157 22.2211 23.6912L22.6687 25.1375C22.7437 25.4 22.6687 25.6156 22.4437 25.7844C22.2187 25.9531 21.9937 25.9437 21.7687 25.7562L21.043 25.193ZM19.5735 47.0217C18.5519 46.683 17.4481 46.683 16.4265 47.0217L7.48125 49.9875C6.73125 50.25 6.04687 50.1562 5.42812 49.7062C4.80937 49.2562 4.5 48.6563 4.5 47.9063V32.295C4.5 31.0552 4.01381 29.8778 3.28983 28.8714C2.43243 27.6796 1.72957 26.3787 1.18125 24.9687C0.39375 22.9437 0 20.7875 0 18.5C0 13.475 1.74375 9.21875 5.23125 5.73125C8.71875 2.24375 12.975 0.5 18 0.5C23.025 0.5 27.2812 2.24375 30.7687 5.73125C34.2562 9.21875 36 13.475 36 18.5C36 20.7875 35.6062 22.9437 34.8187 24.9687C34.2704 26.3787 33.5676 27.6796 32.7102 28.8714C31.9862 29.8778 31.5 31.0552 31.5 32.295V47.9063C31.5 48.6563 31.1906 49.2562 30.5719 49.7062C29.9531 50.1562 29.2687 50.25 28.5187 49.9875L19.5735 47.0217ZM18 32C21.75 32 24.9375 30.6875 27.5625 28.0625C30.1875 25.4375 31.5 22.25 31.5 18.5C31.5 14.75 30.1875 11.5625 27.5625 8.9375C24.9375 6.3125 21.75 5 18 5C14.25 5 11.0625 6.3125 8.4375 8.9375C5.8125 11.5625 4.5 14.75 4.5 18.5C4.5 22.25 5.8125 25.4375 8.4375 28.0625C11.0625 30.6875 14.25 32 18 32ZM9 39.9315C9 42.1485 11.0902 43.7706 13.2378 43.2203L16.7589 42.318C17.5731 42.1094 18.4269 42.1094 19.2411 42.318L22.7622 43.2203C24.9098 43.7706 27 42.1485 27 39.9315V38.6943C27 36.6388 24.7304 35.2917 22.7531 35.8531C21.2344 36.2844 19.65 36.5 18 36.5C16.35 36.5 14.7656 36.2844 13.2469 35.8531C11.2696 35.2917 9 36.6388 9 38.6943V39.9315Z" fill="url(#paint0_angular_1320_2073)"/>
<defs>
<radialGradient id="paint0_angular_1320_2073" cx="0" cy="0" r="1" gradientUnits="userSpaceOnUse" gradientTransform="translate(26.9739 -2.47795) rotate(-90.1798) scale(16.627 12.0626)">
<stop offset="0.448316" stop-color="#6552FE"/>
<stop offset="1" stop-color="#01FFF4"/>
</radialGradient>
</defs>
</svg>
