<svg width="24" height="24" viewBox="0 0 24 24" fill="none" xmlns="http://www.w3.org/2000/svg">
<path d="M19.0005 1.2501C19.1905 1.2501 19.3805 1.3201 19.5305 1.4701C19.8205 1.7601 19.8205 2.2401 19.5305 2.5301L5.5305 16.5301C5.2405 16.8201 4.7605 16.8201 4.4705 16.5301C4.1805 16.2401 4.1805 15.7601 4.4705 15.4701L18.4705 1.4701C18.6205 1.3201 18.8105 1.2501 19.0005 1.2501Z" fill="#FE0000"/>
<path d="M8.73 1.25H19C19.41 1.25 19.75 1.59 19.75 2V12.27C19.75 12.68 19.41 13.02 19 13.02C18.59 13.02 18.25 12.68 18.25 12.27V2.75H8.73C8.32 2.75 7.98 2.41 7.98 2C7.98 1.59 8.32 1.25 8.73 1.25Z" fill="#FE0000"/>
<path d="M3.5 19.7476H20.5C20.91 19.7476 21.25 20.0876 21.25 20.4976C21.25 20.9076 20.91 21.2476 20.5 21.2476H3.5C3.09 21.2476 2.75 20.9076 2.75 20.4976C2.75 20.0876 3.09 19.7476 3.5 19.7476Z" fill="#FE0000"/>
</svg>
