<svg width="24" height="24" viewBox="0 0 24 24" fill="none" xmlns="http://www.w3.org/2000/svg">
<g clip-path="url(#clip0_1142_111)">
<path fill-rule="evenodd" clip-rule="evenodd" d="M20.7732 2.25523C18.7662 0.248255 15.5122 0.248255 13.5052 2.25523C11.4982 4.26221 11.4982 7.51616 13.5052 9.52316C15.3321 11.35 18.1921 11.514 20.2044 10.015L21.9697 11.7803C22.2626 12.0732 22.7374 12.0732 23.0303 11.7803C23.3232 11.4874 23.3232 11.0126 23.0303 10.7197L21.265 8.9544C22.764 6.94208 22.6 4.08206 20.7732 2.25523ZM14.5659 3.31589C15.9871 1.8947 18.2913 1.8947 19.7125 3.31589C21.1337 4.73707 21.1337 7.0413 19.7125 8.46248C18.2913 9.88369 15.9871 9.88369 14.5659 8.46248C13.1447 7.0413 13.1447 4.73707 14.5659 3.31589Z" fill="#D9D9D9"/>
<path d="M5.25 5.25C3.59314 5.25 2.25 6.59314 2.25 8.25V18.75C2.25 20.4069 3.59314 21.75 5.25 21.75H18.75C20.4069 21.75 21.75 20.4069 21.75 18.75V13.5C21.75 13.0858 22.0858 12.75 22.5 12.75C22.9142 12.75 23.25 13.0858 23.25 13.5V18.75C23.25 21.2353 21.2353 23.25 18.75 23.25H5.25C2.76472 23.25 0.75 21.2353 0.75 18.75V8.25C0.75 5.76472 2.76472 3.75 5.25 3.75H10.5C10.9142 3.75 11.25 4.08578 11.25 4.5C11.25 4.91422 10.9142 5.25 10.5 5.25H5.25Z" fill="#D9D9D9"/>
<path d="M6.375 9C6.78922 9 7.125 9.33578 7.125 9.75V17.25C7.125 17.6642 6.78922 18 6.375 18C5.96078 18 5.625 17.6642 5.625 17.25V9.75C5.625 9.33578 5.96078 9 6.375 9Z" fill="#D9D9D9"/>
<path d="M10.125 9C10.5392 9 10.875 9.33578 10.875 9.75V14.25C10.875 14.6642 10.5392 15 10.125 15C9.71078 15 9.375 14.6642 9.375 14.25V9.75C9.375 9.33578 9.71078 9 10.125 9Z" fill="#D9D9D9"/>
<path d="M14.625 12.375C14.625 11.9608 14.2892 11.625 13.875 11.625C13.4608 11.625 13.125 11.9608 13.125 12.375V14.25C13.125 14.6642 13.4608 15 13.875 15C14.2892 15 14.625 14.6642 14.625 14.25V12.375Z" fill="#D9D9D9"/>
<path d="M17.625 11.625C18.0392 11.625 18.375 11.9608 18.375 12.375V17.25C18.375 17.6642 18.0392 18 17.625 18C17.2108 18 16.875 17.6642 16.875 17.25V12.375C16.875 11.9608 17.2108 11.625 17.625 11.625Z" fill="#D9D9D9"/>
<path d="M9.75 16.5C9.33578 16.5 9 16.8358 9 17.25C9 17.6642 9.33578 18 9.75 18H14.25C14.6642 18 15 17.6642 15 17.25C15 16.8358 14.6642 16.5 14.25 16.5H9.75Z" fill="#D9D9D9"/>
</g>
<defs>
<clipPath id="clip0_1142_111">
<rect width="24" height="24" fill="white"/>
</clipPath>
</defs>
</svg>
